<?xml version="1.0" encoding="utf-8"?>
<!-- Generator: Adobe Illustrator 19.0.0, SVG Export Plug-In . SVG Version: 6.00 Build 0)  -->
<svg version="1.1" id="Layer_1" xmlns="http://www.w3.org/2000/svg" xmlns:xlink="http://www.w3.org/1999/xlink" x="0px" y="0px"
	 viewBox="-512 189.3 223.7 223.7" style="enable-background:new -512 189.3 223.7 223.7;" xml:space="preserve">
<style type="text/css">
	.st0{fill:#666666;}
</style>
<g>
	<path class="st0" d="M-289.6,250.2c-1.3-1.8-3.3-2.9-5.5-2.9l-20.2-0.5l2.3-7.4c1.1-3.7-0.9-7.6-4.6-8.8L-441.8,192
		c-3.7-1.2-7.6,0.9-8.8,4.6l-19.3,62.1c-1.1,3.7,0.9,7.6,4.6,8.8l25.1,7.8l-4.2,13.4c-0.6,1.8-0.4,3.7,0.5,5.3
		c0.9,1.6,2.3,2.9,4.1,3.4l11.4,3.5l-28.4,45.9c-4.1-1.8-8.6-2.8-13.4-2.8h-35c-3.9,0-7,3.1-7,7v52.7c0,3.9,3.1,7,7,7h35
		c18.4,0,33.3-15,33.3-33.3c0-8.6-3.3-16.4-8.6-22.3c0.1-0.2,0.3-0.3,0.4-0.5l30.5-49.2l14.9,4.6c0.7,0.2,1.4,0.3,2.1,0.3
		c3,0,5.8-1.9,6.7-4.9l4.2-13.4l45.5,14.1c0.7,0.2,1.4,0.3,2.1,0.3c1.1,0,2.2-0.3,3.3-0.8c1.6-0.9,2.9-2.3,3.4-4.1l2.3-7.4l17,11
		c1.1,0.7,2.5,1.1,3.8,1.1c0.8,0,1.6-0.1,2.4-0.4c2.1-0.7,3.7-2.4,4.3-4.5l13.9-44.9C-288,254.2-288.3,252-289.6,250.2L-289.6,250.2
		z M-498,358h9.3v38.7h-9.3V358z M-470,396.6h-4.7V358h4.7c10.7,0,19.3,8.7,19.3,19.3C-450.7,388-459.3,396.6-470,396.6L-470,396.6z
		 M-402.1,294.4l-26.7-8.3l2.1-6.7l26.7,8.3L-402.1,294.4z M-343.6,290.6l-110.8-34.4l15.1-48.7l110.8,34.4l-3,9.5l-9.2,29.6
		c0,0,0,0,0,0C-340.7,281-343.6,290.6-343.6,290.6z M-313.2,288.2l-12.5-8.1l6.1-19.5l14.9,0.4L-313.2,288.2L-313.2,288.2z"/>
	<path class="st0" d="M-437.9,241c-1.8,0-3.6,0.8-4.9,2c-1.3,1.3-2.1,3.1-2.1,5c0,1.8,0.8,3.6,2.1,4.9c1.3,1.3,3.1,2.1,4.9,2.1
		c1.8,0,3.7-0.7,5-2.1c1.3-1.3,2-3.1,2-4.9c0-1.8-0.8-3.6-2-5C-434.3,241.7-436.1,241-437.9,241z"/>
</g>
</svg>
