<?xml version="1.0" encoding="utf-8"?>
<!-- Generator: Adobe Illustrator 19.0.0, SVG Export Plug-In . SVG Version: 6.00 Build 0)  -->
<svg version="1.1" id="Layer_1" xmlns="http://www.w3.org/2000/svg" xmlns:xlink="http://www.w3.org/1999/xlink" x="0px" y="0px"
	 viewBox="-239 161.3 544.7 446.7" style="enable-background:new -239 161.3 544.7 446.7;" xml:space="preserve">
<style type="text/css">
	.st0{fill:#f8f9fa;}
	.st1{fill:#333333;}
</style>
<g id="XMLID_28_">
	<g id="XMLID_6_">
		<path id="XMLID_225_" class="st0" d="M297.1,244.6c-0.5,0-0.8-0.4-0.8-0.8v-4.3l-0.7-0.1c-2.5-0.5-4.5-2.2-5.5-4.5l-0.2-0.5h-24.7
			v2.6c0,2.4-1.9,4.3-4.3,4.3s-4.3-1.9-4.3-4.3v-19.8l-0.5-0.2c-1.4-0.7-2.4-1.8-2.9-3.3l-1.5-4.1l-15.5,5.7c-0.1,0-0.2,0.1-0.3,0.1
			c-0.3,0-0.7-0.2-0.8-0.5l-0.9-2.5l-0.7,0.1c-0.6,0.1-1.2,0.2-1.8,0.2c-4.5,0-8.4-3.2-9.3-7.7c-0.4-1.9-0.1-3.8,0.7-5.6l0.3-0.8
			l-11.2-5.8c-0.2-0.1-0.3-0.3-0.4-0.5s0-0.4,0.1-0.6c0.1-0.2,0.2-0.3,0.4-0.4l69.8-25.9c0.1,0,0.2-0.1,0.3-0.1
			c0.3,0,0.7,0.2,0.8,0.5l7.7,21c0.2,0.4-0.1,0.9-0.5,1.1l-8.9,3.3l2.1,5.7c0.2,0.4-0.1,0.9-0.5,1.1l-17,6.2l1.5,4.1
			c0.9,2.5,0.1,5.4-2.1,6.9l-0.4,0.3v10.2h24.7l0.2-0.5c1-2.3,3.1-4,5.5-4.5l0.7-0.1v-4.4c0-0.5,0.4-0.8,0.8-0.8h6.9
			c0.5,0,0.8,0.4,0.8,0.8v27.6c0,0.5-0.4,0.8-0.8,0.8C303.9,244.6,297.1,244.6,297.1,244.6z"/>
		<path id="XMLID_222_" class="st1" d="M282.4,166.4l0.1,0.3l0,0l7.6,20.6l-8,2.9l-1.7,0.6l0.6,1.7l1.8,4.8l-16.1,5.9l-1.7,0.6
			l0.6,1.7l1.2,3.2c0.8,2.1,0.1,4.5-1.8,5.8l-0.8,0.5v0.9v8.8v1.8h1.8h23.2h1.2l0.5-1.1c0.9-2,2.7-3.5,4.9-4l1.4-0.3v-1.5v-3.3h6.8
			v27.4h-6.8v-3.5v-1.5l-1.4-0.3c-2.2-0.4-4-1.9-4.9-4l-0.5-1.1h-1.2H266h-1.8v1.8v1.7c0,1.9-1.5,3.4-3.4,3.4s-3.4-1.5-3.4-3.4v-19
			v-1.1l-1-0.5c-1.2-0.6-2-1.6-2.5-2.8l-1.2-3.2l-0.6-1.7l-1.7,0.6l-14.4,5.3l-0.6-1.7l-0.5-1.4l-1.5,0.3c-0.5,0.1-1.1,0.1-1.6,0.1
			c-4.1,0-7.6-2.9-8.4-7c-0.3-1.7-0.1-3.5,0.6-5.1l0.7-1.6l-1.5-0.8l-10.3-5.3L282.4,166.4 M282.5,164.5c-0.2,0-0.4,0-0.6,0.1
			l-69.7,25.8l0,0c-0.4,0.1-0.7,0.4-0.9,0.8c-0.4,0.8-0.1,1.9,0.7,2.3l10.4,5.4c-0.9,1.9-1.1,4.1-0.7,6.1c0.9,5,5.3,8.4,10.1,8.4
			c0.6,0,1.3-0.1,1.9-0.2l0.6,1.8c0.2,0.7,0.9,1.1,1.6,1.1c0.2,0,0.4,0,0.6-0.1l14.6-5.3l1.2,3.2c0.6,1.6,1.8,3,3.4,3.8v19.1
			c0,2.9,2.3,5.2,5.2,5.2c2.9,0,5.2-2.3,5.2-5.2v-1.7h23.2c1.1,2.6,3.4,4.4,6.2,5v3.6c0,1,0.8,1.7,1.7,1.7h6.9c1,0,1.7-0.8,1.7-1.7
			v-27.5c0-1-0.8-1.7-1.7-1.7h-6.9c-1,0-1.7,0.8-1.7,1.7v3.6c-2.7,0.6-5,2.4-6.2,5H266V216c2.5-1.8,3.5-5,2.5-7.9l-1.2-3.2l16.2-5.9
			c0.9-0.3,1.4-1.3,1-2.2l-1.8-4.9l8.1-3l0,0c0.9-0.3,1.4-1.3,1-2.2l-7.7-21l0,0C283.8,165,283.2,164.5,282.5,164.5L282.5,164.5z"/>
	</g>
	<g id="XMLID_14_">
		<g id="XMLID_140_">
			<path id="XMLID_305_" class="st0" d="M297.1,244.6c-0.5,0-0.8-0.4-0.8-0.8v-4.3l-0.7-0.1c-2.5-0.5-4.5-2.2-5.5-4.5l-0.2-0.5
				h-24.7v2.6c0,2.4-1.9,4.3-4.3,4.3s-4.3-1.9-4.3-4.3v-19.8l-0.5-0.2c-1.4-0.7-2.4-1.8-2.9-3.3l-1.5-4.1l-15.5,5.7
				c-0.1,0-0.2,0.1-0.3,0.1c-0.3,0-0.7-0.2-0.8-0.5l-0.9-2.5l-0.7,0.1c-0.6,0.1-1.2,0.2-1.8,0.2c-4.5,0-8.4-3.2-9.3-7.7
				c-0.4-1.9-0.1-3.8,0.7-5.6l0.3-0.8l-11.2-5.8c-0.2-0.1-0.3-0.3-0.4-0.5s0-0.4,0.1-0.6c0.1-0.2,0.2-0.3,0.4-0.4l69.8-25.9
				c0.1,0,0.2-0.1,0.3-0.1c0.3,0,0.7,0.2,0.8,0.5l7.7,21c0.2,0.4-0.1,0.9-0.5,1.1l-8.9,3.3l2.1,5.7c0.2,0.4-0.1,0.9-0.5,1.1l-17,6.2
				l1.5,4.1c0.9,2.5,0.1,5.4-2.1,6.9l-0.4,0.3v10.2h24.7l0.2-0.5c1-2.3,3.1-4,5.5-4.5l0.7-0.1v-4.4c0-0.5,0.4-0.8,0.8-0.8h6.9
				c0.5,0,0.8,0.4,0.8,0.8v27.6c0,0.5-0.4,0.8-0.8,0.8C303.9,244.6,297.1,244.6,297.1,244.6z M297.9,243h5.3v-26h-5.3V243z
				 M258.2,236.9c0,1.4,1.2,2.6,2.6,2.6s2.6-1.2,2.6-2.6v-2.6h-5.2V236.9z M295.1,222.6c-2.4,0.9-4,3.2-4,5.7v3.4
				c0,2.6,1.6,4.9,4,5.7l1.2,0.4v-15.7L295.1,222.6z M258.2,232.6h31.1v-5.2h-31.1L258.2,232.6L258.2,232.6z M260.8,217.3
				c-0.6,0.2-1.2,0.3-1.8,0.3h-0.9v8.1h5.2v-9.4L260.8,217.3z M253.2,209.1l1.5,4.1c0.6,1.7,2.3,2.8,4.1,2.8c0.5,0,1-0.1,1.5-0.3
				l3.2-1.2c1.1-0.4,2-1.2,2.4-2.3c0.5-1.1,0.5-2.2,0.1-3.3l-1.5-4.1L253.2,209.1z M232.3,202.1l4.2,11.4l45.4-16.7l-1.8-4.9
				l-26.7,9.8c-0.1,0-0.2,0-0.3,0c-0.2,0-0.4-0.1-0.6-0.2l-5.2-4.9L232.3,202.1z M224.7,200.2c-0.8,1.8-0.8,3.8-0.2,5.7
				c1.1,3.1,4.1,5.1,7.3,5.1c0.3,0,0.5,0,0.8,0l1.2-0.1l-3.2-8.7l-5.6-2.9L224.7,200.2z M214.8,192.2l16.1,8.3h0.2h0.1l0.3,0.1
				l15.6-5.7c0.1,0,0.2-0.1,0.3-0.1c0.2,0,0.4,0.1,0.6,0.2l5.2,4.9l35.9-13.2l-7.1-19.4L214.8,192.2z"/>
			<path id="XMLID_292_" class="st1" d="M290.3,226.6c0,0.2-0.1,0.3-0.1,0.5L290.3,226.6L290.3,226.6 M290.2,232.9
				c0,0.2,0.1,0.3,0.1,0.5h-0.1V232.9 M282.5,164.5c-0.2,0-0.4,0-0.6,0.1l-69.7,25.8l0,0c-0.4,0.1-0.7,0.4-0.9,0.8
				c-0.4,0.8-0.1,1.9,0.7,2.3l10.4,5.4c-0.9,1.9-1.1,4.1-0.7,6.1c0.9,5,5.3,8.4,10.1,8.4c0.6,0,1.3-0.1,1.9-0.2l0.6,1.8
				c0.2,0.7,0.9,1.1,1.6,1.1c0.2,0,0.4,0,0.6-0.1l14.6-5.3l1.2,3.2c0.6,1.6,1.8,3,3.4,3.8v19.1c0,2.9,2.3,5.2,5.2,5.2
				c2.9,0,5.2-2.3,5.2-5.2v-1.7h23.2c1.1,2.6,3.4,4.4,6.2,5v3.6c0,1,0.8,1.7,1.7,1.7h6.9c1,0,1.7-0.8,1.7-1.7v-27.5
				c0-1-0.8-1.7-1.7-1.7h-6.9c-1,0-1.7,0.8-1.7,1.7v3.6c-2.7,0.6-5,2.4-6.2,5H266V216c2.5-1.8,3.5-5,2.5-7.9l-1.2-3.2l16.2-5.9
				c0.9-0.3,1.4-1.3,1-2.2l-1.8-4.9l8.1-3l0,0c0.9-0.3,1.4-1.3,1-2.2l-7.7-21l0,0C283.8,165,283.2,164.5,282.5,164.5L282.5,164.5z
				 M231.4,199.7c-0.1,0-0.2,0-0.3,0l-14.1-7.3l64.5-23.9l6.5,17.8L253.4,199l-4.8-4.6c-0.3-0.3-0.7-0.5-1.2-0.5
				c-0.2,0-0.4,0-0.6,0.1L231.4,199.7L231.4,199.7z M253,202.7c0.2,0,0.4,0,0.6-0.1l25.9-9.5l1.2,3.2l-43.7,16l-3.6-9.7l13.6-5
				l4.8,4.6C252.1,202.5,252.6,202.7,253,202.7L253,202.7z M231.8,210.1c-2.9,0-5.5-1.8-6.5-4.5c-0.6-1.6-0.5-3.4,0.1-5l4.3,2.2
				l2.7,7.3C232.3,210.1,232,210.1,231.8,210.1L231.8,210.1z M258.8,215.1c-1.4,0-2.7-0.9-3.2-2.3l-1.2-3.2l1-0.4l8.7-3.2l1.2,3.2
				l0,0c0.7,1.8-0.3,3.8-2,4.4l-3.2,1.2C259.6,215,259.2,215.1,258.8,215.1L258.8,215.1z M259.1,224.8v-6.3c0.7,0,1.4-0.2,2-0.4
				l1.4-0.5v7.2H259.1L259.1,224.8z M298.8,242.1v-24.2h3.5V242h-3.5V242.1z M295.4,236.6c-2.1-0.7-3.4-2.7-3.4-4.9v-3.4
				c0-2.2,1.4-4.1,3.4-4.9V236.6L295.4,236.6z M259.1,231.7v-3.4h29.3v3.4H259.1L259.1,231.7z M260.8,238.6c-1,0-1.7-0.8-1.7-1.7
				v-1.7h3.4v1.7C262.6,237.8,261.8,238.6,260.8,238.6L260.8,238.6z"/>
		</g>
		<g id="XMLID_72_">
			
				<rect id="XMLID_218_" x="270.9" y="186" transform="matrix(0.9387 -0.3447 0.3447 0.9387 -47.7399 105.1072)" class="st0" width="1.6" height="1.6"/>
			<polygon id="XMLID_217_" class="st1" points="272.7,184.5 269.4,185.7 270.6,189 273.9,187.8 			"/>
		</g>
		<g id="XMLID_27_">
			
				<rect id="XMLID_215_" x="264.4" y="188.3" transform="matrix(0.9387 -0.3447 0.3447 0.9387 -48.93 103.0222)" class="st0" width="1.6" height="1.6"/>
			<polygon id="XMLID_168_" class="st1" points="266.2,186.9 263,188.1 264.1,191.3 267.4,190.2 			"/>
		</g>
		<g id="XMLID_13_">
			
				<rect id="XMLID_166_" x="257.9" y="190.7" transform="matrix(0.9387 -0.3447 0.3447 0.9387 -50.1619 100.9196)" class="st0" width="1.6" height="1.6"/>
			<polygon id="XMLID_53_" class="st1" points="259.7,189.3 256.5,190.5 257.7,193.7 260.9,192.5 			"/>
		</g>
	</g>
</g>
</svg>
