<?xml version="1.0" encoding="utf-8"?>
<!-- Generator: Adobe Illustrator 19.0.0, SVG Export Plug-In . SVG Version: 6.00 Build 0)  -->
<svg version="1.1" id="Layer_1" xmlns="http://www.w3.org/2000/svg" xmlns:xlink="http://www.w3.org/1999/xlink" x="0px" y="0px"
	 viewBox="-239 161.3 544.7 446.7" style="enable-background:new -239 161.3 544.7 446.7;" xml:space="preserve">
<style type="text/css">
	.st0{fill:#f8f9fa;stroke:#333333;stroke-width:3;stroke-miterlimit:10;}
	.st1{fill:#f8f9fa;}
	.st2{clip-path:url(#SVGID_2_);}
	.st3{fill:none;stroke:#333333;stroke-width:3;stroke-miterlimit:10;}
</style>
<g id="XMLID_69_">
	<path id="XMLID_101_" class="st0" d="M-56.1,475.9h-1c-2.4,0-4.4-2-4.4-4.4v-73.1c0-2.4,2-4.4,4.4-4.4h1c2.4,0,4.4,2,4.4,4.4v73.1
		C-51.7,473.9-53.7,475.9-56.1,475.9z"/>
	<path id="XMLID_106_" class="st0" d="M-26.8,475.9h-1c-2.4,0-4.4-2-4.4-4.4v-73.1c0-2.4,2-4.4,4.4-4.4h1c2.4,0,4.4,2,4.4,4.4v73.1
		C-22.4,473.9-24.4,475.9-26.8,475.9z"/>
	<path id="XMLID_71_" class="st0" d="M-6.7,301.9h-69.5c-5.7,0-10.4-4.7-10.4-10.4L-79,197c0-5.7,4.7-10.4,10.4-10.4h54.4
		c5.7,0,10.4,4.7,10.4,10.4l7.6,94.5C3.7,297.2-1,301.9-6.7,301.9z"/>
	<g id="XMLID_119_">
		<g>
			<path id="XMLID_118_" class="st1" d="M-6.7,301.9h-69.5c-5.7,0-10.4-4.7-10.4-10.4L-79,197c0-5.7,4.7-10.4,10.4-10.4h54.4
				c5.7,0,10.4,4.7,10.4,10.4l7.6,94.5C3.7,297.2-1,301.9-6.7,301.9z"/>
		</g>
		<g>
			<defs>
				<path id="SVGID_1_" d="M-6.7,301.9h-69.5c-5.7,0-10.4-4.7-10.4-10.4L-79,197c0-5.7,4.7-10.4,10.4-10.4h54.4
					c5.7,0,10.4,4.7,10.4,10.4l7.6,94.5C3.7,297.2-1,301.9-6.7,301.9z"/>
			</defs>
			<clipPath id="SVGID_2_">
				<use xlink:href="#SVGID_1_"  style="overflow:visible;"/>
			</clipPath>
			<g id="XMLID_114_" class="st2">
				<line id="XMLID_111_" class="st3" x1="-99.9" y1="315.8" x2="32.3" y2="244.2"/>
				<line id="XMLID_112_" class="st3" x1="-99.9" y1="289.4" x2="32.3" y2="217.8"/>
				<line id="XMLID_113_" class="st3" x1="-99.9" y1="261.7" x2="32.3" y2="190"/>
				<line id="XMLID_117_" class="st3" x1="32.3" y1="315.8" x2="-99.9" y2="244.2"/>
				<line id="XMLID_116_" class="st3" x1="32.3" y1="289.4" x2="-99.9" y2="217.8"/>
				<line id="XMLID_115_" class="st3" x1="32.3" y1="261.7" x2="-99.9" y2="190"/>
			</g>
		</g>
		<g>
			<path id="XMLID_1_" class="st3" d="M-6.7,301.9h-69.5c-5.7,0-10.4-4.7-10.4-10.4L-79,197c0-5.7,4.7-10.4,10.4-10.4h54.4
				c5.7,0,10.4,4.7,10.4,10.4l7.6,94.5C3.7,297.2-1,301.9-6.7,301.9z"/>
		</g>
	</g>
	<path id="XMLID_59_" class="st0" d="M44.6,222.9l-0.5-0.3l0,0l0,0l-0.5-0.3c-2.5-1.2-5.6,0-6.7,2.5l-0.3,0.5l0,0l-5.1,11.1
		l-12.6,27.4l-32.1,16.5c-6.2-9-16.5-14.8-28.2-14.8c-14.4,0-26.7,8.9-31.7,21.4l-21.8,36c-0.4,0.6-0.6,1.2-0.8,1.9l-6.7,40.4
		l-0.6,3.4l0,0l-0.1,0.6c-0.5,2.8,1.4,5.4,4.2,5.8l1.2,0.2c2.8,0.5,5.2-1.4,5.7-4.2v-0.6l0,0l2.1-12.1l4.9-30.5l8.9-15.1v151.5h69
		V299.9c0-3.2-0.5-6.2-1.3-9.1l34.7-17.9c1.5-0.8,2.5-2.2,2.7-3.8l18.1-39.4C48.3,227.1,47.2,224.1,44.6,222.9z"/>
	<path id="XMLID_108_" class="st0" d="M-41.1,331.1h-0.7c-1.6,0-3-1.3-3-3v-48c0-1.6,1.3-3,3-3h0.7c1.6,0,3,1.3,3,3v48
		C-38.1,329.8-39.5,331.1-41.1,331.1z"/>
	<circle id="XMLID_95_" class="st0" cx="-41.5" cy="266.7" r="11.6"/>
	<path id="XMLID_70_" class="st0" d="M-12.4,226.6c0,16-13,46-29.1,46s-29.1-29.9-29.1-46s13-29.1,29.1-29.1S-12.4,210.5-12.4,226.6
		z"/>
	<path id="XMLID_79_" class="st0" d="M-66,210.9h25.3H-17c-5.2-8.1-14.2-13.4-24.5-13.4S-60.8,202.9-66,210.9z"/>
	<path id="XMLID_74_" class="st0" d="M-3.8,192.8h-75.3c-3,0-5.5,2.5-5.5,5.5v1.3c0,3,2.5,5.5,5.5,5.5h75.3c3,0,5.5-2.5,5.5-5.5
		v-1.3C1.7,195.3-0.8,192.8-3.8,192.8z"/>
	<g id="XMLID_77_">
		<path id="XMLID_78_" class="st0" d="M-41.5,217.6c0-3.7,11-6.7,24.5-6.7h-49C-52.4,210.9-41.5,213.9-41.5,217.6z"/>
	</g>
</g>
</svg>
