<?xml version="1.0" encoding="utf-8"?>
<!-- Generator: Adobe Illustrator 19.0.0, SVG Export Plug-In . SVG Version: 6.00 Build 0)  -->
<svg version="1.1" id="Layer_1" xmlns="http://www.w3.org/2000/svg" xmlns:xlink="http://www.w3.org/1999/xlink" x="0px" y="0px"
	 viewBox="-239 161.3 544.7 446.7" style="enable-background:new -239 161.3 544.7 446.7;" xml:space="preserve">
<style type="text/css">
	.st0{fill:#f8f9fa;}
	.st1{fill:#333333;}
	.st2{fill:#f8f9fa;stroke:#333333;stroke-width:3;stroke-miterlimit:10;}
</style>
<g id="XMLID_60_">
	<g id="XMLID_88_">
		<path id="XMLID_151_" class="st0" d="M121.3,556.8c-3.3,0-6-2.7-6-6c0-0.7-0.2-71-0.2-80.5c-2.8-1-4.8-3.5-4.8-6.3v-12.7
			c0-4.1,3.3-7.4,7.4-7.4H278c4.1,0,7.4,3.3,7.4,7.4v12.6c0,2.8-1.9,5.4-4.8,6.4c-0.1,9.5-0.2,79.8-0.2,80.5c0,1.6-0.6,3.1-1.8,4.2
			c-1.1,1.1-2.6,1.8-4.2,1.8l0,0c-0.5,0-0.9-0.1-1.3-0.2c-2.7-0.6-4.7-3.1-4.7-6v-74c-1.4,0.8-3,1.3-4.7,1.3H132
			c-1.6,0-3.3-0.5-4.7-1.3v74c0,2.9-2,5.4-4.7,6C122.2,556.7,121.8,556.8,121.3,556.8z"/>
		<path id="XMLID_148_" class="st1" d="M278,446c3.2,0,5.4,2.1,5.4,5.4V464c0,2.3-1.4,4.2-3.5,5c-0.6,0.2-0.8,0.7-0.8,1.3
			c-0.1,9.7-0.2,80.6-0.2,80.6c0,2.5-2,4.5-4.5,4.5c-0.3,0-0.9,0-1.3-0.1c-2.1-0.5-3.7-2.4-3.7-4.5v-76.3c0-0.2,0-0.4-0.2-0.4
			c-0.1,0-0.1,0.3-0.2,0.4c-1.3,1.4-3.3,2.6-5.4,2.6h-65.8H132c-2.1,0-4.2-1.2-5.5-2.6c-0.1-0.1-0.4-0.3-0.5-0.3
			c-0.2,0-0.7,0-0.7,0.3v76.3c0,2.1-1.2,4.1-3.2,4.5c-0.3,0.1-0.6,0.1-0.9,0.1c-2.5,0-4.4-2-4.4-4.5c0,0-0.1-70.9-0.2-80.6
			c0-0.6-0.6-1.1-1.2-1.3c-2.1-0.8-4-2.7-4-5v-12.7c0-3.2,3.1-5.4,6.4-5.4h80.1l0,0h80.5 M278,443h-80.1h-80.1
			c-4.9,0-9.4,3.5-9.4,8.4V464c0,3.1,2.1,5.9,5,7.4c0.1,12.7,0.4,78.8,0.4,79.5c0,4.1,3.4,7.5,7.6,7.5c0.6,0,0.9-0.1,1.5-0.2
			c3.4-0.8,5.6-3.9,5.6-7.5V479c2,0.3,2.6,1,3.7,1H198h65.8c1.1,0,1.7-0.7,2.7-1v71.7c0,3.6,2.7,6.7,6.1,7.5
			c0.6,0.1,1.2,0.2,1.8,0.2c4.1,0,7.6-3.4,7.6-7.5c0-0.7-0.1-66.8,0-79.5c2.9-1.5,4.5-4.3,4.5-7.4v-12.7
			C286.3,446.4,282.9,443,278,443L278,443z"/>
	</g>
	<g id="XMLID_67_">
		<path id="XMLID_87_" class="st2" d="M215.1,352.4c0-11-8.9-19.8-19.8-19.8c-11,0-19.8,8.9-19.8,19.8c0,8.6,5.5,23.1,13.1,28.8
			c0.2,3.5,3.1,6.3,6.7,6.3s6.5-2.8,6.7-6.3C209.6,375.5,215.1,361,215.1,352.4z"/>
		<path id="XMLID_86_" class="st2" d="M180.9,545.6L180.9,545.6c-3,0-5.4-2.4-5.4-5.4v-6.3c0-3,2.4-5.4,5.4-5.4l0,0
			c3,0,5.4,2.4,5.4,5.4v6.3C186.3,543.1,183.9,545.6,180.9,545.6z"/>
		<path id="XMLID_85_" class="st2" d="M210.6,545.6L210.6,545.6c-3,0-5.4-2.4-5.4-5.4v-6.3c0-3,2.4-5.4,5.4-5.4l0,0
			c3,0,5.4,2.4,5.4,5.4v6.3C216,543.1,213.6,545.6,210.6,545.6z"/>
		<path id="XMLID_84_" class="st2" d="M279.6,434.7c0,0-59.5-43.2-60.1-43.4c-3.9-4.1-9.5-5.8-16.9-5.8h-12.1
			c-8.3,0-14.5,1.7-18.6,6.9l-59,42.6c-2.2,1.7-3.1,4.5-2.1,6.8l0,0c2,2.2,5.8,2.7,8.1,1.1l47.1-34.4c-0.1,1.2,0.1,2.5,0,3.8
			c0,1.5,6.1,119.7,6.1,119.7c0.1,2.1,1.9,3.8,4.1,3.9l41,0.7c2.2,0,4.1-1.7,4.2-3.9c0,0,4.8-121.2,4.8-121.3c0-1.2-0.1-2.4-0.1-3.5
			l47.4,35c2.2,1.7,5.4,1.2,7.1-1.1l0,0C282.3,439.5,281.8,436.3,279.6,434.7z"/>
		<path id="XMLID_212_" class="st2" d="M175.5,352.5c0,0,12.4-9.6,39.6-1.1"/>
	</g>
	<g id="XMLID_65_">
		<path id="XMLID_133_" class="st0" d="M234.3,556.5c-2.8,0-5-2.1-5-4.8V500c0,0.2-0.9-0.1-1.6-0.1h-62c-0.7,0-1.4,0.3-2.4,0.1v51.6
			c0,2.7-2.2,4.8-5,4.8s-5-2.1-5-4.8V428.9c0-6.2,5.7-10.9,12.4-10.9h62c6.7,0,11.6,4.8,11.6,10.9v122.8
			C239.3,554.4,237.1,556.5,234.3,556.5z"/>
		<path id="XMLID_130_" class="st1" d="M227.7,419c5.8,0,10.6,4.7,10.6,9.9v59.9c0,0.7,0,2.9,0,3.3v59.6c0,1.8-1.5,3.3-3.5,3.3
			s-3.5-1.5-3.5-3.3v-53.8c-1,0.3-2.4,1-3.6,1h-62c-1.2,0-2.3-0.7-3.4-1v53.8c0,1.8-1.5,3.3-3.5,3.3s-3.5-1.5-3.5-3.3v-59.6
			c0-0.4,0-2.6,0-3.3v-59.9c0-5.3,4.5-9.9,10.4-9.9h61.6 M227.7,416h-62c-7.4,0-13.4,6-13.4,12.9v59.9v3.3v59.6
			c0,3.5,2.9,6.3,6.5,6.3s6.5-2.8,6.5-6.3v-49.8c0.1,0,0.2,0.1,0.4,0.1h62c0.2,0,0.4-0.1,0.6-0.1v49.8c0,3.5,2.9,6.3,6.5,6.3
			s6.5-2.8,6.5-6.3v-59.6v-3.3v-59.9C241.3,422,235.2,416,227.7,416L227.7,416z"/>
	</g>
</g>
</svg>
