<?xml version="1.0" encoding="utf-8"?>
<!-- Generator: Adobe Illustrator 19.0.0, SVG Export Plug-In . SVG Version: 6.00 Build 0)  -->
<svg version="1.1" id="Layer_1" xmlns="http://www.w3.org/2000/svg" xmlns:xlink="http://www.w3.org/1999/xlink" x="0px" y="0px"
	 viewBox="-239 161.3 544.7 446.7" style="enable-background:new -239 161.3 544.7 446.7;" xml:space="preserve">
<style type="text/css">
	.st0{fill:#f8f9fa;}
	.st1{fill:#333333;}
	.st2{fill:#f8f9fa;stroke:#333333;stroke-width:3;stroke-miterlimit:10;}
</style>
<g id="XMLID_3_">
	<g id="XMLID_62_">
		<path id="XMLID_128_" class="st0" d="M-221.7,548.8c-3.3,0-6-2.7-6-6c0-0.7-0.2-71-0.2-80.5c-2.8-1-4.8-3.5-4.8-6.3v-12.7
			c0-4.1,3.3-7.4,7.4-7.4H-65c4.1,0,7.4,3.3,7.4,7.4v12.6c0,2.8-1.9,5.4-4.8,6.4c-0.1,9.5-0.2,79.8-0.2,80.5c0,1.6-0.6,3.1-1.8,4.2
			c-1.1,1.1-2.6,1.8-4.2,1.8l0,0c-0.4,0-0.9-0.1-1.3-0.2c-2.7-0.6-4.7-3.1-4.7-6v-74c-1.4,0.8-3,1.3-4.7,1.3H-211
			c-1.6,0-3.3-0.5-4.7-1.3v74c0,2.9-2,5.4-4.7,6C-220.8,548.7-221.2,548.8-221.7,548.8z"/>
		<path id="XMLID_125_" class="st1" d="M-65,438c3.2,0,5.4,2.1,5.4,5.4V456c0,2.3-1.4,4.2-3.5,5c-0.6,0.2-0.8,0.7-0.8,1.3
			c-0.1,9.7-0.2,80.6-0.2,80.6c0,2.5-2,4.5-4.5,4.5c-0.3,0-0.9,0-1.3-0.1c-2.1-0.5-3.7-2.4-3.7-4.5v-76.3c0-0.2,0-0.4-0.2-0.4
			c-0.1,0-0.1,0.3-0.2,0.4c-1.3,1.4-3.3,2.6-5.4,2.6h-65.8H-211c-2.1,0-4.2-1.2-5.5-2.6c-0.1-0.1-0.4-0.3-0.5-0.3
			c-0.2,0-0.7,0-0.7,0.3v76.3c0,2.1-1.2,4.1-3.2,4.5c-0.3,0.1-0.6,0.1-0.9,0.1c-2.5,0-4.4-2-4.4-4.5c0,0-0.1-70.9-0.2-80.6
			c0-0.6-0.6-1.1-1.2-1.3c-2.1-0.8-4-2.7-4-5v-12.7c0-3.2,3.1-5.4,6.4-5.4h80.1l0,0h80.5 M-65,435h-80.2h-80.1
			c-4.9,0-9.4,3.5-9.4,8.4V456c0,3.1,2.1,5.9,5,7.4c0.1,12.7,0.4,78.8,0.4,79.5c0,4.1,3.4,7.5,7.6,7.5c0.6,0,0.9-0.1,1.5-0.2
			c3.4-0.8,5.6-3.9,5.6-7.5V471c2,0.3,2.6,1,3.7,1h65.8h65.8c1.1,0,1.7-0.7,2.7-1v71.7c0,3.6,2.7,6.7,6.1,7.5
			c0.6,0.1,1.2,0.2,1.8,0.2c4.1,0,7.6-3.4,7.6-7.5c0-0.7-0.1-66.8,0-79.5c2.9-1.5,4.5-4.3,4.5-7.4v-12.7
			C-56.7,438.4-60.1,435-65,435L-65,435z"/>
	</g>
	<g id="XMLID_2_">
		<path id="XMLID_66_" class="st2" d="M-127.9,344.4c0-11-8.9-19.8-19.8-19.8c-11,0-19.8,8.9-19.8,19.8c0,8.6,5.5,23.1,13.1,28.8
			c0.2,3.5,3.1,6.3,6.7,6.3c3.6,0,6.5-2.8,6.7-6.3C-133.4,367.5-127.9,353-127.9,344.4z"/>
		<path id="XMLID_61_" class="st2" d="M-162.1,537.6L-162.1,537.6c-3,0-5.4-2.4-5.4-5.4v-6.3c0-3,2.4-5.4,5.4-5.4l0,0
			c3,0,5.4,2.4,5.4,5.4v6.3C-156.7,535.1-159.1,537.6-162.1,537.6z"/>
		<path id="XMLID_63_" class="st2" d="M-132.4,537.6L-132.4,537.6c-3,0-5.4-2.4-5.4-5.4v-6.3c0-3,2.4-5.4,5.4-5.4l0,0
			c3,0,5.4,2.4,5.4,5.4v6.3C-127,535.1-129.4,537.6-132.4,537.6z"/>
		<path id="XMLID_68_" class="st2" d="M-63.4,426.7c0,0-59.5-43.2-60.1-43.4c-3.9-4.1-9.5-5.8-16.9-5.8h-12.1
			c-8.3,0-14.5,1.7-18.6,6.9l-59,42.6c-2.2,1.7-3.1,4.5-2.1,6.8l0,0c2,2.2,5.8,2.7,8.1,1.1l47.1-34.5c-0.1,1.2,0.1,2.5,0,3.8
			c0,1.5,5.3,119.4,5.3,119.4c0.1,2.5,2,4.4,4.2,4.4l42.4,0.8c2.3,0,4.2-1.9,4.3-4.5c0,0,3.9-120.9,3.9-121.1c0-1.2-0.1-2.4-0.1-3.5
			l47.4,35c2.2,1.7,5.4,1.2,7.1-1.1l0,0C-60.7,431.5-61.2,428.3-63.4,426.7z"/>
		<path id="XMLID_214_" class="st2" d="M-167.5,343.5c0,0,12.4-9.6,39.6-1.1"/>
	</g>
	<g id="XMLID_64_">
		<path id="XMLID_123_" class="st0" d="M-108.7,548.5c-2.8,0-5-2.1-5-4.8V492c0,0.2-0.9-0.1-1.6-0.1h-62c-0.7,0-1.4,0.3-2.4,0.1
			v51.6c0,2.7-2.2,4.8-5,4.8s-5-2.1-5-4.8V420.9c0-6.2,5.7-10.9,12.4-10.9h62c6.7,0,11.6,4.8,11.6,10.9v122.8
			C-103.7,546.4-105.9,548.5-108.7,548.5z"/>
		<path id="XMLID_120_" class="st1" d="M-115.3,411c5.8,0,10.6,4.7,10.6,9.9v59.9c0,0.7,0,2.9,0,3.3v59.6c0,1.8-1.5,3.3-3.5,3.3
			s-3.5-1.5-3.5-3.3v-53.8c-1,0.3-2.4,1-3.6,1h-62c-1.2,0-2.3-0.7-3.4-1v53.8c0,1.8-1.5,3.3-3.5,3.3s-3.5-1.5-3.5-3.3v-59.6
			c0-0.4,0-2.6,0-3.3v-59.9c0-5.3,4.5-9.9,10.4-9.9h61.6 M-115.3,408h-62c-7.4,0-13.4,6-13.4,12.9v59.9v3.3v59.6
			c0,3.5,2.9,6.3,6.5,6.3c3.6,0,6.5-2.8,6.5-6.3v-49.8c0.1,0,0.2,0.1,0.4,0.1h62c0.2,0,0.4-0.1,0.6-0.1v49.8c0,3.5,2.9,6.3,6.5,6.3
			c3.6,0,6.5-2.8,6.5-6.3v-59.6v-3.3v-59.9C-101.7,414-107.8,408-115.3,408L-115.3,408z"/>
	</g>
</g>
</svg>
