<?xml version="1.0" encoding="utf-8"?>
<!-- Generator: Adobe Illustrator 19.0.0, SVG Export Plug-In . SVG Version: 6.00 Build 0)  -->
<svg version="1.1" id="Layer_1" xmlns="http://www.w3.org/2000/svg" xmlns:xlink="http://www.w3.org/1999/xlink" x="0px" y="0px"
	 viewBox="-376 153 496 496" style="enable-background:new -376 153 496 496;" xml:space="preserve">
<style type="text/css">
	.st0{fill:#549A52;}
</style>
<path class="st0" d="M-328,313h32v16h-32V313z"/>
<path class="st0" d="M96,281c13.2,0,24-10.8,24-24v-80c0-13.2-10.8-24-24-24H-16c-13.2,0-24,10.8-24,24v80c0,13.2,10.8,24,24,24H8
	v16H-8v16h40v80H-1c-6.4-6.2-14.2-11-23-13.6c0-0.8,0.1-1.6,0.1-2.4c0-35.3-28.7-64-64-64c-21.9,0-42.2,11.4-53.9,29.6
	c-8.3-3.7-17.2-5.6-26.2-5.6c-26.6,0-50.5,16.7-59.8,41.3c-6.1,1.3-11.7,3.6-16.9,6.7H-304v-24h32c13.2,0,24-10.8,24-24V177
	c0-13.2-10.8-24-24-24h-80c-13.2,0-24,10.8-24,24v160c0,13.2,10.8,24,24,24h32v40h58.3c-3.4,4.9-6,10.2-7.8,16H-304v88h-32
	c-13.2,0-24,10.8-24,24v72h-16v24c0,13.2,10.8,24,24,24h128c13.2,0,24-10.8,24-24v-24h-16v-72c0-13.2-10.8-24-24-24h-48v-72h16
	c0,30.9,25.1,56,56,56h176c28.2,0,51.5-20.9,55.4-48H48v64H-8v144h128V505H64v-80H15.3c-0.8-5.6-2.6-11-5-16H48v-96h40v-16H72v-16
	H96z M-264,281h-96v-80h96V281z M-352,169h80c4.4,0,8,3.6,8,8v8h-96v-8C-360,172.6-356.4,169-352,169z M-360,337v-40h96v40
	c0,4.4-3.6,8-8,8h-80C-356.4,345-360,341.4-360,337z M-216,625c0,4.4-3.6,8-8,8h-128c-4.4,0-8-3.6-8-8v-8h144V625z M-232,529v72
	h-112v-72c0-4.4,3.6-8,8-8h96C-235.6,521-232,524.6-232,529z M8,633v-48h96v48H8z M104,569H8v-48h96V569z M-40,473h-176
	c-22.1,0-40-17.9-40-40c0-20.2,15.1-37.3,35.2-39.7l5.3-0.6l1.5-5.1c5.8-20.4,24.8-34.6,46-34.6c8.8,0,17.5,2.5,25.1,7.2l7.6,4.7
	l3.8-8.1c7.9-16.9,25-27.8,43.5-27.8c26.5,0,48,21.5,48,48c0,2.2-0.2,4.6-0.6,7.4l-1.2,7.9l7.9,1.2C-14.6,396.5,0,413.4,0,433
	C0,455.1-17.9,473-40,473z M-16,169H96c4.4,0,8,3.6,8,8v56H-24v-56C-24,172.6-20.4,169-16,169z M-24,257v-8h128v8c0,4.4-3.6,8-8,8
	H-16C-20.4,265-24,261.4-24,257z M56,297H24v-16h32V297z"/>
<path class="st0" d="M24,537h16v16H24V537z"/>
<path class="st0" d="M72,601h16v16H72V601z"/>
<path class="st0" d="M56,537h32v16H56V537z"/>
<path class="st0" d="M24,601h32v16H24V601z"/>
</svg>
