<?xml version="1.0" encoding="utf-8"?>
<!-- Generator: Adobe Illustrator 19.0.0, SVG Export Plug-In . SVG Version: 6.00 Build 0)  -->
<svg version="1.1" id="Layer_1" xmlns="http://www.w3.org/2000/svg" xmlns:xlink="http://www.w3.org/1999/xlink" x="0px" y="0px"
	 viewBox="-368 145 512 512" style="enable-background:new -368 145 512 512;" xml:space="preserve">
<style type="text/css">
	.st0{fill:#549A52;}
</style>
<g id="Face_Detection">
	<path class="st0" d="M32,152.8h-288c-22.1,0-40,17.9-40,40v400c0,22.1,17.9,40,40,40H32c22.1,0,40-17.9,40-40v-400
		C72,170.7,54.1,152.8,32,152.8z M56,592.8c0,13.3-10.7,24-24,24h-288c-13.3,0-24-10.7-24-24v-400c0-13.3,10.7-24,24-24H32
		c13.3,0,24,10.7,24,24V592.8z"/>
	<path class="st0" d="M-120,184.8h16v16h-16V184.8z"/>
	<path class="st0" d="M-176,584.8h128v16h-128V584.8z"/>
	<path class="st0" d="M8,504.8v-11.4c-0.1-25.2-16.9-47.3-41.3-54L-80,426.7v-9.5c24.5-12.1,40-37.1,40-64.4v-48
		c0-39.8-32.2-72-72-72s-72,32.2-72,72v48c0,27.3,15.5,52.3,40,64.4v9.5l-46.8,12.7c-24.3,6.7-41.2,28.8-41.2,54v11.4
		c0,4.4,3.6,8,8,8H0C4.4,512.8,8,509.2,8,504.8z M-112,248.8c27.8,0,51.4,20.5,55.4,48h-11.1l-13.6-20.4c-2.4-3.7-7.4-4.7-11.1-2.2
		c-0.1,0.1-0.3,0.2-0.4,0.3l-29.9,22.3h-44.7C-163.4,269.3-139.8,248.8-112,248.8L-112,248.8z M-168,352.8v-40h48
		c1.7,0,3.4-0.6,4.8-1.6l25.2-18.9l11.3,17c1.5,2.2,4,3.6,6.7,3.6h16v40c0,30.9-25.1,56-56,56S-168,383.7-168,352.8L-168,352.8
		L-168,352.8z M-112,424.8c5.4,0,10.8-0.6,16-1.9v9.9c0,8.8-7.2,16-16,16s-16-7.2-16-16v-9.9C-122.8,424.2-117.4,424.8-112,424.8z
		 M-8,496.8h-208v-3.4c0.1-18,12.1-33.8,29.5-38.6l44.3-12c5.4,16.7,23.3,25.9,40,20.5c9.7-3.1,17.3-10.8,20.5-20.5l44.3,12
		C-20,459.6-8,475.4-7.9,493.4L-8,496.8L-8,496.8z"/>
	<path class="st0" d="M-144,320.8h16v16h-16V320.8z"/>
	<path class="st0" d="M-96,320.8h16v16h-16V320.8z"/>
	<path class="st0" d="M-136,360.8h48v16h-48V360.8z"/>
	<path class="st0" d="M-248,240.8h24v-16h-32c-4.4,0-8,3.6-8,8v32h16V240.8z"/>
	<path class="st0" d="M32,224.8H0v16h24v24h16v-32C40,228.4,36.4,224.8,32,224.8z"/>
	<path class="st0" d="M-248,504.8h-16v32c0,4.4,3.6,8,8,8h32v-16h-24V504.8z"/>
	<path class="st0" d="M24,528.8H0v16h32c4.4,0,8-3.6,8-8v-32H24V528.8z"/>
</g>
</svg>
