<?xml version="1.0" encoding="utf-8"?>
<!-- Generator: Adobe Illustrator 19.0.0, SVG Export Plug-In . SVG Version: 6.00 Build 0)  -->
<svg version="1.1" id="Layer_1" xmlns="http://www.w3.org/2000/svg" xmlns:xlink="http://www.w3.org/1999/xlink" x="0px" y="0px"
	 viewBox="0 0 171.3 145.4" style="enable-background:new 0 0 171.3 145.4;" xml:space="preserve">
<style type="text/css">
	.st0{fill:#333333;}
	.st1{fill:#549A52;}
</style>
<rect id="XMLID_90_" x="41.9" y="5.5" transform="matrix(0.7071 0.7071 -0.7071 0.7071 29.4241 -33.5073)" class="st0" width="26.5" height="26.5"/>
<g id="XMLID_86_">
	<g id="XMLID_87_">
		<polygon id="XMLID_28_" class="st1" points="54.3,127.5 16,89.1 31.6,73.5 54.3,96.2 150.3,0.2 166,15.8 		"/>
	</g>
</g>
<polygon id="XMLID_3_" class="st0" points="98,89.9 98,132.7 56.4,132.7 11,132.7 11,68.7 56.4,68.7 74.7,68.7 83.6,59.7 82.6,59.7 
	55.6,59.7 28.7,59.7 2,59.7 2,85.8 2,102.7 2,113.7 2,140.7 28.7,140.7 55.6,140.7 82.6,140.7 109,140.7 109,112.8 109,85.8 
	109,79.8 "/>
</svg>
