<?xml version="1.0" encoding="utf-8"?>
<!-- Generator: Adobe Illustrator 19.0.0, SVG Export Plug-In . SVG Version: 6.00 Build 0)  -->
<svg version="1.1" id="Layer_1" xmlns="http://www.w3.org/2000/svg" xmlns:xlink="http://www.w3.org/1999/xlink" x="0px" y="0px"
	 viewBox="0 0 458 195.7" style="enable-background:new 0 0 458 195.7;" xml:space="preserve">
<style type="text/css">
	.st0{fill:#FFFFFF;}
	.st1{fill:#33A15A;}
</style>
<rect id="XMLID_90_" x="202.9" y="5.5" transform="matrix(0.7071 0.7071 -0.7071 0.7071 76.5799 -147.3515)" class="st0" width="26.5" height="26.5"/>
<g id="XMLID_88_">
	<polygon id="XMLID_89_" class="st0" points="259,89.9 259,132.7 217.4,132.7 172,132.7 172,68.7 217.4,68.7 235.7,68.7 244.6,59.7 
		243.6,59.7 216.6,59.7 189.7,59.7 163,59.7 163,85.8 163,113.7 134,113.7 134,86.7 108,86.7 108,113.7 82.3,113.7 55,113.7 
		55,139.8 55,166.7 28.3,166.7 0,166.7 0,195.7 28.3,195.7 55.3,195.7 81,195.7 81,166.8 81,140.7 109.3,140.7 135.7,140.7 
		162.7,140.7 189.7,140.7 216.6,140.7 243.6,140.7 270,140.7 270,112.8 270,85.8 270,79.8 	"/>
</g>
<g id="XMLID_86_">
	<g id="XMLID_87_">
		<polygon id="XMLID_14_" class="st1" points="215.3,127.5 177,89.1 192.6,73.5 215.3,96.2 311.3,0.2 327,15.8 		"/>
	</g>
</g>
<g id="XMLID_84_">
	<polygon id="XMLID_85_" class="st0" points="431.9,59.7 405,59.7 378.6,59.7 351,59.7 351,86.7 378.6,86.7 405,86.7 432,86.7 
		432,113.7 405,113.7 378.6,113.7 351.6,113.7 324,113.7 324,85.8 324,58.8 324,31.9 324,25.5 296,53.3 296,58.8 296,85.8 
		296,112.8 296,140.7 324.6,140.7 351.6,140.7 378.6,140.7 405,140.7 431.9,140.7 458,140.7 458,112.8 458,85.8 458,59.7 	"/>
</g>
</svg>
