<?xml version="1.0" encoding="utf-8"?>
<!-- Generator: Adobe Illustrator 19.0.0, SVG Export Plug-In . SVG Version: 6.00 Build 0)  -->
<svg version="1.1" id="Layer_1" xmlns="http://www.w3.org/2000/svg" xmlns:xlink="http://www.w3.org/1999/xlink" x="0px" y="0px"
	 viewBox="0 0 458 195.7" style="enable-background:new 0 0 458 195.7;" xml:space="preserve">
<style type="text/css">
	.st0{fill:#333333;}
	.st1{fill:#33A15A;}
	.st2{fill:#1A1A1A;}
</style>
<rect id="XMLID_90_" x="202.9" y="5.5" transform="matrix(0.7071 0.7071 -0.7071 0.7071 76.5799 -147.3515)" class="st0" width="26.5" height="26.5"/>
<g id="XMLID_88_">
	<polygon id="XMLID_89_" class="st0" points="259,89.9 259,132.7 217.4,132.7 172,132.7 172,68.7 217.4,68.7 235.7,68.7 244.6,59.7 
		243.6,59.7 216.6,59.7 189.7,59.7 163,59.7 163,85.8 163,113.7 134,113.7 134,86.7 108,86.7 108,113.7 82.3,113.7 55,113.7 
		55,139.8 55,166.7 28.3,166.7 0,166.7 0,195.7 28.3,195.7 55.3,195.7 81,195.7 81,166.8 81,140.7 109.3,140.7 135.7,140.7 
		162.7,140.7 189.7,140.7 216.6,140.7 243.6,140.7 270,140.7 270,112.8 270,85.8 270,79.8 	"/>
</g>
<g id="XMLID_86_">
	<g id="XMLID_87_">
		<polygon id="XMLID_104_" class="st1" points="215.3,127.5 177,89.1 192.6,73.5 215.3,96.2 311.3,0.2 327,15.8 		"/>
	</g>
</g>
<g id="XMLID_84_">
	<polygon id="XMLID_85_" class="st0" points="431.9,59.7 405,59.7 378.6,59.7 351,59.7 351,86.7 378.6,86.7 405,86.7 432,86.7 
		432,113.7 405,113.7 378.6,113.7 351.6,113.7 324,113.7 324,85.8 324,58.8 324,31.9 324,25.5 296,53.3 296,58.8 296,85.8 
		296,112.8 296,140.7 324.6,140.7 351.6,140.7 378.6,140.7 405,140.7 431.9,140.7 458,140.7 458,112.8 458,85.8 458,59.7 	"/>
</g>
<g id="XMLID_27_">
	<path id="XMLID_63_" class="st2" d="M118.6,174.4c-0.3,1.7-1.5,2.7-3.2,2.7h-10.7c-2.7,0-4.7-1.1-6.1-3.3c-1.2-1.8-1.7-4.1-1.9-7
		l-0.1-2.5h2.1l0.1,2.5c0.1,3.1,0.9,5.3,2.4,6.7c1,0.9,2.2,1.4,3.5,1.4h10.1c0.9,0,1.4-0.7,1.4-2c0,0.1-0.1-6-0.3-18.5h2.5
		C118.5,163.1,118.6,169.8,118.6,174.4z M110.8,165.8H104l0.7-1.3h2c-0.5-0.6-0.7-1.3-0.7-2.1c0-1.7,1.2-3,2.8-3c0.8,0,1.4,0.3,2,1
		l-0.6,0.9c-0.4-0.5-0.8-0.7-1.3-0.7c-0.9,0-1.3,0.7-1.3,2c0,1.1,0.8,1.9,1.8,1.9h1.5V165.8z"/>
	<path id="XMLID_66_" class="st2" d="M128.1,173.9c0,3-0.8,5.5-2.5,7.5c-1.6,2-3.8,3.1-6.6,3.3c-0.2-0.4-0.6-1.2-1-2.2
		c2.3,0,4.1-0.8,5.5-2.4c1.4-1.6,2.2-3.6,2.2-5.9l0-9.9h2.4L128.1,173.9z"/>
	<path id="XMLID_69_" class="st2" d="M149,177.2h-5.3c-1.1,4.3-4.3,7.2-8.7,7.6c-0.2-0.5-0.6-1.2-1-2.2c1.7,0,3.3-0.5,4.6-1.5
		c1.2-1,2.1-2.3,2.7-3.9H138c-1.6,0-2.9-0.6-3.9-1.8c-1-1.2-1.4-2.7-1.4-4.4c0-2.3,0.8-4,2.2-5.2c1.1-0.9,2.3-1.4,3.7-1.4
		c3.6,0,5.5,1.9,5.5,5.5v5.1h4.9V177.2z M141.6,174.9v-5.8c0-2.1-1-3.1-2.8-3.1c-0.9,0-1.7,0.4-2.4,1.2c-0.7,0.9-1.2,2.1-1.2,3.6
		c0,2.3,1.3,4.2,3.4,4.2H141.6z"/>
	<path id="XMLID_73_" class="st2" d="M173.5,177.2h-26l0-2.2h5.7c-0.9-1-1.4-2.3-1.4-3.9c0-1.8,0.5-3.3,1.4-4.5
		c-0.9,0.2-1.7,0.6-2.5,1l-0.8-1.7c2.3-0.9,4.6-1.4,7-1.4c6.3,0,9.9,3.5,10.8,10.5h5.8V177.2z M160,170.8c0-1.4-0.3-2.4-1-3.3
		c-0.6-0.7-1.3-1-2.1-1c-0.8,0-1.5,0.3-2,1c-0.6,0.8-0.8,1.9-0.8,3.3c0,1.4,0.3,2.4,0.9,3.2c0.6,0.7,1.3,1.1,2.1,1.1
		C158.8,175.1,160,173.6,160,170.8z M165.2,174.9c-0.1-1.6-0.6-3.2-1.4-4.7c-0.7-1.4-1.6-2.3-2.5-2.8c0.7,1,1,2.2,1,3.6
		c0,1.6-0.3,2.9-1,3.9H165.2z"/>
	<path id="XMLID_91_" class="st2" d="M196.7,177.2h-24.1v-2.2h3.9l-0.1-18.5h2.4l-0.3,15.6c1.4-3,3.3-5.2,5.7-6.5
		c1.7-0.9,3.4-1.3,5-1.2c3,0.3,5.1,1.9,6.3,4.6C196.3,170.9,196.7,173.6,196.7,177.2z M194.3,174.9c0-1.6-0.2-2.9-0.6-4.1
		c-0.8-2.8-2.3-4.2-4.5-4.3c-4.3-0.3-7.7,2.5-10.2,8.4H194.3z M188.7,161.6h-2.6v-2.7h2.6V161.6z"/>
	<path id="XMLID_95_" class="st2" d="M220.3,174.9c0,0.4,0,1.2,0,2.2h-3.1c-1.4,0-2.4-0.7-3.3-2.2c-0.2,2.8-1.1,5-2.8,6.8
		c-1.6,1.8-3.7,2.8-6.3,3c-0.2-0.4-0.6-1.2-1-2.2c2.3,0,4.1-0.8,5.6-2.4c1.4-1.6,2.1-3.5,2.1-5.9l0-9.9h2.4l0,7c0,1,0.4,1.9,1.1,2.6
		c0.6,0.6,1.3,0.9,1.9,0.9H220.3z"/>
	<path id="XMLID_98_" class="st2" d="M234.4,177.2h-3.1c-1,0-1.9-0.5-2.7-1.3c-0.4-0.5-0.7-1-0.9-1.5c-0.7,1.7-2.4,2.7-4.4,2.8h-3.9
		v-2.2h3.2c0.6,0,1.2-0.2,1.8-0.5c0.7-0.5,1.1-1.1,1.1-1.9c0.1,0.6,0.1-2.1,0-8.1h2.4c0,2.2,0,4.4,0.1,6.6c0,1.2,0.4,2.2,1.1,2.9
		c0.6,0.6,1.3,0.9,1.9,0.9h3.4v0.6v1.1V177.2z M228.2,182.3h-2.6v-2.7h2.6V182.3z"/>
	<path id="XMLID_101_" class="st2" d="M249.1,177.2h-15.6l0-2.2h5.2c-1.2-1.4-1.8-3-1.8-4.8c0-1.8,0.6-3.3,1.9-4.5
		c1.2-1.1,2.6-1.7,4.1-1.7c2.1,0,3.7,0.8,4.9,2.3l-1.5,1.2c-0.8-0.9-1.9-1.4-3.2-1.4c-0.7,0-1.4,0.3-2.1,0.9
		c-0.9,0.9-1.4,2.1-1.4,3.6c0,2.6,2,4.4,4.3,4.4h4.3L249.1,177.2z"/>
	<path id="XMLID_103_" class="st2" d="M281,174.4c-0.3,1.7-1.5,2.7-3.2,2.7h-10.7c-2.7,0-4.7-1.1-6.1-3.3c-1.2-1.8-1.7-4.1-1.9-7
		l-0.1-2.5h2.1l0.1,2.5c0.1,3.1,0.9,5.3,2.4,6.7c1,0.9,2.2,1.4,3.5,1.4h10.1c0.9,0,1.4-0.7,1.4-2c0,0.1-0.1-6-0.3-18.5h2.5
		C281,163.1,281,169.8,281,174.4z M273.3,165.8h-6.8l0.7-1.3h2c-0.5-0.6-0.7-1.3-0.7-2.1c0-1.7,1.2-3,2.8-3c0.8,0,1.4,0.3,2,1
		l-0.6,0.9c-0.4-0.5-0.8-0.7-1.3-0.7c-0.9,0-1.3,0.7-1.3,2c0,1.1,0.8,1.9,1.8,1.9h1.5V165.8z"/>
	<path id="XMLID_107_" class="st2" d="M290.6,173.9c0,3-0.8,5.5-2.5,7.5c-1.6,2-3.8,3.1-6.6,3.3c-0.2-0.4-0.6-1.2-1-2.2
		c2.3,0,4.1-0.8,5.5-2.4c1.4-1.6,2.2-3.6,2.2-5.9l0-9.9h2.4L290.6,173.9z"/>
	<path id="XMLID_109_" class="st2" d="M311.4,177.2h-5.3c-1.1,4.3-4.3,7.2-8.7,7.6c-0.2-0.5-0.6-1.2-1-2.2c1.7,0,3.3-0.5,4.6-1.5
		c1.2-1,2.1-2.3,2.7-3.9h-3.1c-1.6,0-2.9-0.6-3.9-1.8c-1-1.2-1.4-2.7-1.4-4.4c0-2.3,0.8-4,2.2-5.2c1.1-0.9,2.3-1.4,3.7-1.4
		c3.6,0,5.5,1.9,5.5,5.5v5.1h4.9V177.2z M304.1,174.9v-5.8c0-2.1-1-3.1-2.8-3.1c-0.9,0-1.7,0.4-2.4,1.2c-0.7,0.9-1.2,2.1-1.2,3.6
		c0,2.3,1.3,4.2,3.4,4.2H304.1z"/>
	<path id="XMLID_112_" class="st2" d="M315.3,177.2h-4.8v-2.2h4.8V177.2z"/>
	<path id="XMLID_114_" class="st2" d="M346.6,177.2h-32v-2.2h5.9v-7.2h2.2v3.1c1.2-2.3,2.9-4,5-5.1c1.9-1,3.5-1.5,5.1-1.3
		c2.7,0.3,4.6,1.5,5.9,3.7c0.9,1.6,1.4,3.9,1.6,6.9h6.3V177.2z M337.9,174.9c0-1.6-0.2-2.9-0.6-4.1c-0.8-2.8-2.3-4.2-4.5-4.3
		c-4.2-0.2-7.6,2.4-10.1,8v0.4H337.9z M333,161.6h-2.6v-2.7h2.6V161.6z"/>
	<path id="XMLID_118_" class="st2" d="M350.7,177.2h-4.8v-2.2h4.8V177.2z"/>
	<path id="XMLID_120_" class="st2" d="M368.2,177.2H350l0-2.2h15.5c0-2.6-0.8-4.8-2.1-6.4c-1.3-1.5-2.8-2.3-4.5-2.3
		c-1.6,0-3.2,0.5-4.8,1.4l-1-2.1c2.1-1,4-1.5,5.7-1.5c3.4,0,5.9,1.4,7.5,4.3C367.6,170.6,368.2,173.5,368.2,177.2z"/>
	<path id="XMLID_122_" class="st2" d="M403,177.2H400c-1.4,0-2.4-0.7-3.3-2.1c0,2.7-0.9,5-2.8,6.9c-1.8,1.9-4,2.9-6.5,2.9
		c-2.6,0-4.8-1-6.6-2.9s-2.7-4.3-2.7-7c0-1.9,0-4.2-0.1-7.2h2.4c0,4.5,0,6.9,0,7.2c0,2.1,0.7,3.8,2,5.2c1.4,1.4,3,2.2,4.9,2.2
		c1.9,0,3.5-0.7,4.9-2.2c1.4-1.5,2-3.2,2-5.3l-0.2-20.7h2.4c0,3.9,0,9.6,0.1,17.3c0,1.1,0.4,1.9,1.1,2.6c0.6,0.6,1.3,0.8,1.9,0.8
		h3.3v0.6v1.1V177.2z"/>
	<path id="XMLID_124_" class="st2" d="M407.1,177.2h-4.8v-2.2h4.8V177.2z"/>
	<path id="XMLID_126_" class="st2" d="M427.6,177.2h-21.2l0-2.2h15c-0.1-2.6-0.8-4.8-2.1-6.4c-1.3-1.5-2.8-2.3-4.5-2.3
		c-1.6,0-3.2,0.5-4.8,1.4l-1-2.1c2.1-1,4-1.5,5.7-1.5c3,0,5.3,1.1,7,3.4c1.3,1.9,2.1,4.3,2.4,7.5h3.7V177.2z M415.6,182.3H413v-2.7
		h2.6V182.3z"/>
	<path id="XMLID_129_" class="st2" d="M431.6,177.2h-4.8v-2.2h4.8V177.2z"/>
	<path id="XMLID_131_" class="st2" d="M457.1,173c0,2.8-2,4.6-4.6,4.6c-1.2,0-2.1-0.2-2.8-0.6c-0.8-0.5-1.4-1.2-1.9-2.2
		c-0.6,1.9-2.1,2.8-4.4,2.8c-1.2,0-2.1-0.2-2.8-0.5c-0.6-0.3-1.1-0.8-1.5-1.5v1.6h-7.9v-2.2h5.6v-5.5c0-1.1,0-2.4,0-4.1h2.4v6.1
		c0.1,2.6,1.4,3.9,4.1,3.9c1.4,0,2.4-0.8,2.4-2.4c0-0.7,0-3.3-0.1-7.6h2.4c0,1.3,0,3.4,0,6.1c0,1.3,0.5,2.3,1.3,2.9
		c0.7,0.6,1.7,0.9,3,0.9c1.4,0,2.5-0.8,2.5-2.4c0-0.7,0-3.5-0.1-8.6h2.4C457,169.9,457.1,172.8,457.1,173z"/>
</g>
</svg>
