<svg width="458" height="195.7" xmlns="http://www.w3.org/2000/svg">
 <style type="text/css">.st0{fill:#FFFFFF;}</style>

 <g>
  <title>background</title>
  <rect fill="none" id="canvas_background" height="402" width="582" y="-1" x="-1"/>
 </g>
 <g>
  <title>Layer 1</title>
  <rect height="26.5" width="26.5" class="st0" transform="matrix(0.7071,0.7071,-0.7071,0.7071,76.5799,-147.3515) " y="-12.012532" x="219.751681" id="XMLID_90_"/>
  <g stroke="null" id="XMLID_88_">
   <polygon stroke="null" points="196.97192679626187,89.9000015258789 196.97192679626187,132.6999969482422 238.88831114806544,132.6999969482422 284.6335227601703,132.6999969482422 284.6335227601703,68.69999694824219 238.88831114806544,68.69999694824219 220.44911128582226,68.69999694824219 211.4814433122301,59.70000076293945 212.48905213811668,59.70000076293945 239.69438630835157,59.70000076293945 266.79895364578624,59.70000076293945 293.70194269103376,59.70000076293945 293.70194269103376,85.80000305175781 293.70194269103376,113.69999694824219 322.9224796375129,113.69999694824219 322.9224796375129,86.69999694824219 349.1202198573901,86.69999694824219 349.1202198573901,113.69999694824219 375.0156595788667,113.69999694824219 402.5232496209155,113.69999694824219 402.5232496209155,139.8000030517578 402.5232496209155,166.6999969482422 429.42629816827866,166.6999969482422 457.94146728515625,166.6999969482422 457.94146728515625,195.6999969482422 429.42629816827866,195.6999969482422 402.22094912251487,195.6999969482422 376.3255094010383,195.6999969482422 376.3255094010383,166.8000030517578 376.3255094010383,140.6999969482422 347.8103105331029,140.6999969482422 321.2095624841404,140.6999969482422 294.0042431894344,140.6999969482422 266.79895364578624,140.6999969482422 239.69438630835157,140.6999969482422 212.48905213811668,140.6999969482422 185.88828921362528,140.6999969482422 185.88828921362528,112.80000305175781 185.88828921362528,85.80000305175781 185.88828921362528,79.80000305175781 " class="st0" id="XMLID_89_"/>
  </g>
  <g stroke="null" id="XMLID_86_">
   <g stroke="null" id="XMLID_87_">
    <polygon stroke="null" points="241.2450408935547,127.03271865844727 280.7377700805664,88.63270950317383 264.6519546508789,73.03271102905273 241.2450408935547,95.73270797729492 142.25544548034668,-0.2672872543334961 126.06650638580322,15.332714080810547 " class="st0" id="XMLID_14_"/>
   </g>
  </g>
  <g stroke="null" id="XMLID_84_">
   <polygon stroke="null" points="25.484955859488792,59.70000076293945 52.3436709473481,59.70000076293945 78.70313094117412,59.70000076293945 106.26076098726847,59.70000076293945 106.26076098726847,86.69999694824219 78.70313094117412,86.69999694824219 52.3436709473481,86.69999694824219 25.385102497714826,86.69999694824219 25.385102497714826,113.69999694824219 52.3436709473481,113.69999694824219 78.70313094117412,113.69999694824219 105.66167986607982,113.69999694824219 133.2194192506486,113.69999694824219 133.2194192506486,85.80000305175781 133.2194192506486,58.79999923706055 133.2194192506486,31.899999618530273 133.2194192506486,25.5 161.17687666806344,53.29999923706055 161.17687666806344,58.79999923706055 161.17687666806344,85.80000305175781 161.17687666806344,112.80000305175781 161.17687666806344,140.6999969482422 132.6203225096779,140.6999969482422 105.66167986607982,140.6999969482422 78.70313094117412,140.6999969482422 52.3436709473481,140.6999969482422 25.484955859488792,140.6999969482422 -0.5750871896743774,140.6999969482422 -0.5750871896743774,112.80000305175781 -0.5750871896743774,85.80000305175781 -0.5750871896743774,59.70000076293945 " class="st0" id="XMLID_85_"/>
  </g>
 </g>
</svg>