<?xml version="1.0" encoding="utf-8"?>
<!-- Generator: Adobe Illustrator 19.0.0, SVG Export Plug-In . SVG Version: 6.00 Build 0)  -->
<svg version="1.1" id="Layer_1" xmlns="http://www.w3.org/2000/svg" xmlns:xlink="http://www.w3.org/1999/xlink" x="0px" y="0px"
	 viewBox="-368 45 512 512" style="enable-background:new -368 45 512 512;" xml:space="preserve">
<style type="text/css">
	.st0{fill:#666666;}
</style>
<path class="st0" d="M144,391.5c0-63.5-36.4-120.2-91-147.8C51.3,365.5-47.5,464.3-169.3,466c27.6,54.6,84.3,91,147.8,91
	c29.8,0,58.8-7.9,84.2-23l80.6,22.3L121,475.7C136.1,450.3,144,421.3,144,391.5z"/>
<path class="st0" d="M23,240.5C23,132.7-64.7,45-172.5,45S-368,132.7-368,240.5c0,35.1,9.4,69.3,27.1,99.4l-26.4,95.4l95.4-26.4
	c30,17.8,64.2,27.1,99.4,27.1C-64.7,436,23,348.3,23,240.5z M-202.5,195h-30c0-33.1,26.9-60,60-60s60,26.9,60,60
	c0,16.8-7.1,32.9-19.5,44.3l-25.5,23.3V286h-30v-36.6l35.2-32.3c6.3-5.8,9.8-13.6,9.8-22.1c0-16.5-13.5-30-30-30
	S-202.5,178.5-202.5,195z M-187.5,316h30v30h-30V316z"/>
</svg>
