<?xml version="1.0" encoding="utf-8"?>
<!-- Generator: Adobe Illustrator 19.0.0, SVG Export Plug-In . SVG Version: 6.00 Build 0)  -->
<svg version="1.1" id="Layer_1" xmlns="http://www.w3.org/2000/svg" xmlns:xlink="http://www.w3.org/1999/xlink" x="0px" y="0px"
	 viewBox="-368 145 512 512" style="enable-background:new -368 145 512 512;" xml:space="preserve">
<style type="text/css">
	.st0{fill:#549A52;}
</style>
<g id="surface1">
	<path class="st0" d="M118.5,283.9l0-0.4c-0.2-4.9-0.4-10.1-0.5-15.9c-0.4-28.2-22.9-51.6-51.1-53.2C8.1,211.2-37.5,192-76.4,154
		l-0.3-0.3c-12.7-11.6-31.8-11.6-44.5,0l-0.3,0.3c-38.9,37.9-84.4,57.1-143.3,60.4c-28.2,1.6-50.7,24.9-51.1,53.2
		c-0.1,5.8-0.2,11-0.5,15.9l0,0.9c-1.1,60-2.6,134.7,22.4,202.5c13.7,37.3,34.6,69.7,61.9,96.3c31.1,30.3,71.8,54.4,121,71.6
		c1.6,0.6,3.3,1,5,1.4c2.4,0.5,4.8,0.7,7.2,0.7s4.8-0.2,7.2-0.7c1.7-0.3,3.4-0.8,5-1.4c49.2-17.2,89.9-41.3,120.9-71.6
		c27.3-26.7,48.1-59.1,61.9-96.4C121,418.9,119.6,344.1,118.5,283.9z M67.8,476.5C41.4,548-12.4,597.1-96.7,626.6
		c-0.3,0.1-0.6,0.2-1,0.3c-0.9,0.2-1.8,0.2-2.6,0c-0.3-0.1-0.6-0.2-0.9-0.3c-84.4-29.4-138.3-78.5-164.6-150
		c-23-62.5-21.7-131.1-20.6-191.6l0-0.3c0.2-5.2,0.4-10.6,0.5-16.6c0.2-12.5,10.2-22.9,22.7-23.6c33.3-1.9,62.6-8.3,89.5-19.7
		c26.9-11.4,50.7-27.4,72.9-49c1.1-1,2.6-1,3.7,0c22.2,21.6,46.1,37.6,72.9,49c26.9,11.4,56.2,17.8,89.5,19.7
		c12.6,0.7,22.5,11.1,22.7,23.6c0.1,6,0.2,11.5,0.5,16.6C89.6,345.3,90.9,413.9,67.8,476.5z"/>
	<path class="st0" d="M-99,273.4c-70.4,0-127.6,57.2-127.6,127.6c0,70.4,57.2,127.6,127.6,127.6c70.4,0,127.6-57.2,127.6-127.6
		C28.6,330.7-28.6,273.4-99,273.4z M-99,498.6c-53.8,0-97.6-43.8-97.6-97.6s43.8-97.6,97.6-97.6c53.8,0,97.6,43.8,97.6,97.6
		S-45.2,498.6-99,498.6z"/>
	<path class="st0" d="M-62.3,361.4l-59.3,59.3l-16.1-16.1c-5.9-5.9-15.4-5.9-21.2,0c-5.9,5.9-5.9,15.4,0,21.2l26.7,26.7
		c2.9,2.9,6.8,4.4,10.6,4.4s7.7-1.5,10.6-4.4l69.9-69.9c5.9-5.9,5.9-15.4,0-21.2C-47,355.5-56.5,355.5-62.3,361.4z"/>
</g>
</svg>
