<?xml version="1.0" encoding="utf-8"?>
<!-- Generator: Adobe Illustrator 19.0.0, SVG Export Plug-In . SVG Version: 6.00 Build 0)  -->
<svg version="1.1" id="Capa_1" xmlns="http://www.w3.org/2000/svg" xmlns:xlink="http://www.w3.org/1999/xlink" x="0px" y="0px"
	 viewBox="-368 45 512 512" style="enable-background:new -368 45 512 512;" xml:space="preserve">
<style type="text/css">
	.st0{fill:#666666;}
</style>
<g>
	<g>
		<path class="st0" d="M-112,45c-49.6,0-90,41.4-90,91s40.4,90,90,90s90-40.4,90-90S-62.4,45-112,45z"/>
	</g>
</g>
<g>
	<g>
		<path class="st0" d="M-82,226h-30h-30c-21.2,0-41.6,5.5-60.2,14.8c31.6,8.5,61.3,20.8,90.2,37.4c28.9-16.6,58.6-28.9,90.2-37.4
			C-40.4,231.5-60.8,226-82,226z"/>
	</g>
</g>
<g>
	<g>
		<path class="st0" d="M114,316c-16.6,0-30,13.4-30,30v60c0,16.6,13.4,30,30,30s30-13.4,30-30v-60C144,329.4,130.6,316,114,316z"/>
	</g>
</g>
<g>
	<g>
		<path class="st0" d="M-338,316c-16.6,0-30,13.4-30,30v60c0,16.6,13.4,30,30,30s30-13.4,30-30v-60C-308,329.4-321.4,316-338,316z"
			/>
	</g>
</g>
<g>
	<g>
		<path class="st0" d="M-323,256c-8.3,0-15,6.7-15,15v15c33.1,0,60,26.9,60,60v60c0,33.1-26.9,60-60,60v15c0,8.3,6.7,15,15,15
			c76.9,0,138.4,24.3,196,61V304.6C-184.9,271.4-247.1,256-323,256z"/>
	</g>
</g>
<g>
	<g>
		<path class="st0" d="M114,286v-15c0-8.3-6.7-15-15-15c-75.9,0-138.1,15.4-196,48.6V557c57.6-36.7,119.1-61,196-61
			c8.3,0,15-6.7,15-15v-15c-33.1,0-60-26.9-60-60v-60C54,312.9,80.9,286,114,286z"/>
	</g>
</g>
</svg>
