<?xml version="1.0" encoding="utf-8"?>
<!-- Generator: Adobe Illustrator 19.0.0, SVG Export Plug-In . SVG Version: 6.00 Build 0)  -->
<svg version="1.1" id="Capa_1" xmlns="http://www.w3.org/2000/svg" xmlns:xlink="http://www.w3.org/1999/xlink" x="0px" y="0px"
	 viewBox="-608 285.7 31.3 31.3" style="enable-background:new -608 285.7 31.3 31.3;" xml:space="preserve">
<style type="text/css">
	.st0{fill:#666666;}
</style>
<g>
	<g>
		<rect x="-584.3" y="300.9" class="st0" width="5.1" height="1.9"/>
		<polygon class="st0" points="-605.1,286.2 -605.1,289.1 -603.8,288.7 -603.8,287.4 -578,287.4 -578,303.9 -598.5,303.9 
			-598.6,305.2 -576.7,305.2 -576.7,286.2 		"/>
		<circle class="st0" cx="-603" cy="293.2" r="3.8"/>
		<polygon class="st0" points="-599.8,314.8 -599.8,308 -599.8,307.3 -599.8,306.5 -599.5,306.5 -599.2,299.6 -592.6,296.2 
			-593.1,295.1 -593,295.4 -585.9,291.3 -586.2,290.8 -593.3,294.8 -593.5,294.5 -599.5,297.6 -601.6,297.6 -603.1,299.3 
			-604.5,297.6 -607.6,298.2 -607.8,305.1 -606.5,305.1 -606.4,306.5 -606.2,306.5 -606.2,307.3 -606.2,308 -606.2,314.8 
			-606.5,314.8 -608,315.1 -608,316.5 -606.7,316.5 -605.2,316.3 -605.2,316.5 -603.5,316.5 -603.5,315 -603.5,314.8 -603.5,308 
			-602.5,308 -602.5,314.8 -602.5,315 -602.5,316.5 -600.8,316.5 -600.8,316.3 -599.3,316.5 -598,316.5 -598,315.1 -599.5,314.8 		
			"/>
	</g>
</g>
</svg>
